Coordinates
version=1
nRows=38
nColumns=12
inDegrees=yes

Units are S.I. units (second, meters, Newtons, ...)
Angles are in degrees

endheader
time	SC_y	SC_z	SC_x	AC_y	AC_z	AC_x	GH_y	GH_z	GH_yy	EL_x	PS_y
       0.0              -14.88           32.4          38.16          59.06         0.5334         -8.939          52.56          -15.8          120.9           70.0          140.9
   0.02196              -14.89           32.4          38.16          59.06         0.5321         -8.941          52.58          -15.8          120.9           70.0          140.9
   0.04392              -14.89           32.4          38.16          59.06         0.5307         -8.942           52.6         -15.79          120.9          70.01          140.9
   0.06588              -14.89           32.4          38.16          59.06         0.5292         -8.944          52.62         -15.79          120.8          70.02          140.9
   0.08784               -14.9           32.4          38.15          59.06         0.5277         -8.945          52.64         -15.79          120.8          70.03          140.9
    0.1098               -14.9           32.4          38.15          59.07          0.526         -8.947          52.66         -15.79          120.8          70.04          140.9
    0.1318               -14.9           32.4          38.15          59.07         0.5242         -8.949          52.68         -15.78          120.7          70.05          140.9
    0.1537              -14.91           32.4          38.15          59.07         0.5223         -8.951          52.71         -15.78          120.7          70.06          140.9
    0.1757              -14.91           32.4          38.15          59.07         0.5203         -8.953          52.74         -15.77          120.6          70.07          140.9
    0.1976              -14.92           32.4          38.14          59.08         0.5181         -8.955          52.77         -15.77          120.6          70.08          140.9
    0.2196              -14.92           32.4          38.14          59.08         0.5157         -8.958           52.8         -15.76          120.5          70.09          140.9
    0.2416              -14.93           32.4          38.14          59.08         0.5132          -8.96          52.84         -15.76          120.5          70.11          140.9
    0.2635              -14.93           32.4          38.14          59.09         0.5105         -8.963          52.87         -15.75          120.4          70.12          140.9
    0.2855              -14.94           32.4          38.13          59.09         0.5075         -8.966          52.91         -15.75          120.4          70.14          140.9
    0.3074              -14.95           32.4          38.13          59.09         0.5043         -8.969          52.96         -15.74          120.3          70.15          140.9
    0.3294              -14.96           32.4          38.13           59.1         0.5009         -8.973          53.01         -15.74          120.2          70.17          140.9
    0.3513              -14.96           32.4          38.12           59.1         0.4971         -8.977          53.06         -15.73          120.1          70.19          140.9
    0.3733              -14.97           32.4          38.12          59.11          0.493         -8.981          53.11         -15.72          120.0          70.21          140.8
    0.3953              -14.98          32.39          38.11          59.11         0.4886         -8.985          53.18         -15.71          119.9          70.24          140.8
    0.4172              -14.99          32.39          38.11          59.12         0.4837          -8.99          53.24          -15.7          119.8          70.27          140.8
    0.4392               -15.0          32.39           38.1          59.12         0.4783         -8.996          53.32         -15.69          119.7          70.29          140.8
    0.4611              -15.02          32.39           38.1          59.13         0.4724         -9.002           53.4         -15.68          119.6          70.33          140.8
    0.4831              -15.03          32.39          38.09          59.14         0.4659         -9.009          53.49         -15.67          119.4          70.36          140.8
    0.5051              -15.05          32.39          38.08          59.15         0.4586         -9.016          53.59         -15.65          119.3           70.4          140.8
     0.527              -15.06          32.39          38.07          59.16         0.4506         -9.024           53.7         -15.63          119.1          70.44          140.8
     0.549              -15.08          32.38          38.06          59.17         0.4416         -9.033          53.82         -15.62          118.9          70.49          140.8
    0.5709              -15.11          32.38          38.05          59.18         0.4315         -9.044          53.96          -15.6          118.7          70.55          140.7
    0.5929              -15.13          32.38          38.04          59.19         0.4202         -9.055          54.12         -15.57          118.4          70.61          140.7
    0.6149              -15.16          32.38          38.03          59.21         0.4075         -9.068           54.3         -15.55          118.1          70.68          140.7
    0.6368              -15.19          32.38          38.01          59.23         0.3929         -9.083           54.5         -15.52          117.8          70.76          140.7
    0.6588              -15.22          32.37          37.99          59.25         0.3764           -9.1          54.72         -15.49          117.4          70.84          140.6
    0.6807              -15.27          32.37          37.97          59.27         0.3574         -9.119          54.99         -15.45          117.0          70.95          140.6
    0.7027              -15.31          32.36          37.95          59.29         0.3354         -9.142          55.29          -15.4          116.5          71.07          140.6
    0.7247              -15.37          32.36          37.92          59.33         0.3099         -9.168          55.64         -15.35          115.9           71.2          140.5
    0.7466              -15.43          32.35          37.89          59.36         0.2801         -9.198          56.05         -15.29          115.3          71.36          140.5
    0.7686              -15.51          32.35          37.85           59.4         0.2449         -9.234          56.54         -15.22          114.5          71.55          140.4
    0.7905               -15.6          32.34           37.8          59.45         0.2031         -9.277          57.11         -15.14          113.5          71.78          140.3
    0.8125              -15.71          32.33          37.75          59.51          0.153         -9.328          57.81         -15.04          112.4          72.05          140.2
